<svg width="300" height="300" xmlns="http://www.w3.org/2000/svg">
 <metadata id="metadata5108">image/svg+xmlWhiter EggCarlos AsmatdStulleA variation on dStulle original "white egg" featuring a less yellowish egg.eggfoodanimalwhite</metadata>
 <g>
  <title>Layer 1</title>
  <g id="svg_1" transform="rotate(49.370948791503906 169.80072021484372,156.0789031982422) ">
   <path d="m275.98895,189.48082c0.63058,58.48758 -38.4184,108.81972 -103.87271,108.81972c-65.45428,0 -109.13434,-33.17957 -108.70398,-113.55101c0.42307,-80.5569 54.54618,-169.16831 103.87271,-170.32656c52.61453,-1.27716 107.76157,86.06605 108.70398,175.05785z" id="path2167" stroke-dashoffset="0" stroke-miterlimit="4" stroke-linejoin="round" stroke-linecap="round" stroke-width="2.81825" stroke="#000000" fill-rule="evenodd" fill="#fcfcfa"/>
   <path d="m236.868,76.597c-4.575,4.3232 2.479,11.4215 2.877,16.8794c11.17201,34.97459 15.59001,72.86759 7.968,109.0526c-8.886,35.661 -36.041,67.408 -71.84801,77.77901c-14.00299,4.349 -28.78159,5.33499 -43.36508,5.30399c-4.70151,6.18799 8.94629,5.83499 12.62268,7.35101c31.1134,6.04898 66.18741,0.86697 90.44341,-20.77502c22.649,-20.07999 33.83299,-50.84099 33.20399,-80.73599c0.18402,-35.02699 -8.94598,-69.68099 -23.28699,-101.4674c-2.634,-4.4222 -4.34399,-10.71449 -8.61501,-13.3876l0,0z" id="path3139" stroke-dashoffset="0" stroke-miterlimit="4" stroke-linejoin="round" stroke-linecap="round" stroke-width="5" fill-rule="evenodd" fill-opacity="0.25098" fill="#0aa699"/>
  </g>
 </g>
</svg>